<svg width="171" height="117" viewBox="0 0 171 117" fill="none" xmlns="http://www.w3.org/2000/svg">
<g clip-path="url(#clip0_247_696)">
<path d="M168.602 44.2858H168.556L142.306 55.4948L106.39 70.8311C106.25 70.8901 106.099 70.9209 105.947 70.9217C105.795 70.9225 105.644 70.8932 105.503 70.8357L68.4486 55.4628L41.5535 44.3041L41.5124 44.2858H41.4666C41.0422 44.2863 40.6354 44.4551 40.3353 44.7552C40.0352 45.0553 39.8664 45.4621 39.866 45.8865V115.399C39.8664 115.824 40.0352 116.231 40.3353 116.531C40.6354 116.831 41.0422 117 41.4666 117H168.602C169.026 117 169.433 116.831 169.733 116.531C170.033 116.231 170.202 115.824 170.203 115.399V45.8865C170.202 45.4621 170.033 45.0553 169.733 44.7552C169.433 44.4551 169.026 44.2863 168.602 44.2858Z" fill="white"/>
<path d="M169.059 44.7432C169.012 44.7432 168.967 44.7289 168.929 44.7022L105.69 0.661308C105.498 0.527908 105.269 0.456616 105.035 0.457015C104.801 0.457415 104.572 0.529485 104.38 0.663541L41.5978 44.7017C41.5732 44.719 41.5455 44.7312 41.5162 44.7377C41.4869 44.7443 41.4565 44.745 41.427 44.7398C41.3974 44.7346 41.3691 44.7236 41.3438 44.7075C41.3184 44.6914 41.2965 44.6704 41.2793 44.6458C41.262 44.6212 41.2498 44.5935 41.2433 44.5642C41.2367 44.5349 41.236 44.5046 41.2412 44.475C41.2464 44.4454 41.2574 44.4171 41.2735 44.3918C41.2896 44.3664 41.3106 44.3445 41.3352 44.3273L104.118 0.289064C104.387 0.101414 104.707 0.000542832 105.034 4.07679e-06C105.362 -0.000534679 105.682 0.099284 105.952 0.28605L169.19 44.3268C169.23 44.3546 169.26 44.3945 169.276 44.4406C169.291 44.4867 169.292 44.5366 169.277 44.583C169.263 44.6295 169.234 44.6701 169.194 44.6989C169.155 44.7277 169.108 44.7432 169.059 44.7432L169.059 44.7432Z" fill="#3F3D56"/>
<path d="M45.1853 46.3043L105.097 1.90223L165.463 49.4637L108.184 83.4198L77.086 76.3313L45.1853 46.3043Z" fill="#E6E6E6"/>
<path d="M79.7113 104.393H50.1133C49.9316 104.393 49.7516 104.358 49.5836 104.288C49.4156 104.219 49.263 104.117 49.1344 103.989C49.0058 103.86 48.9038 103.708 48.8342 103.54C48.7646 103.372 48.7288 103.192 48.7288 103.01C48.7288 102.829 48.7646 102.649 48.8342 102.481C48.9038 102.313 49.0058 102.16 49.1344 102.032C49.263 101.903 49.4156 101.802 49.5836 101.732C49.7516 101.663 49.9316 101.627 50.1133 101.627H79.7113C79.893 101.627 80.073 101.663 80.241 101.732C80.409 101.802 80.5616 101.903 80.6902 102.032C80.8188 102.16 80.9208 102.313 80.9904 102.481C81.06 102.649 81.0958 102.829 81.0958 103.01C81.0958 103.192 81.06 103.372 80.9904 103.54C80.9208 103.708 80.8188 103.86 80.6902 103.989C80.5616 104.117 80.409 104.219 80.241 104.288C80.073 104.358 79.893 104.393 79.7113 104.393Z" fill="#0188FE"/>
<path d="M60.7324 98.4479H50.1133C49.9316 98.4481 49.7516 98.4125 49.5836 98.3431C49.4156 98.2737 49.263 98.1719 49.1344 98.0435C49.0058 97.9151 48.9038 97.7625 48.8342 97.5947C48.7646 97.4268 48.7288 97.2468 48.7288 97.0651C48.7288 96.8833 48.7646 96.7034 48.8342 96.5355C48.9038 96.3676 49.0058 96.2151 49.1344 96.0867C49.263 95.9583 49.4156 95.8564 49.5836 95.787C49.7516 95.7177 49.9316 95.6821 50.1133 95.6823H60.7324C60.9142 95.6821 61.0942 95.7177 61.2621 95.787C61.4301 95.8564 61.5828 95.9583 61.7113 96.0867C61.8399 96.2151 61.942 96.3676 62.0116 96.5355C62.0812 96.7034 62.117 96.8833 62.117 97.0651C62.117 97.2468 62.0812 97.4268 62.0116 97.5947C61.942 97.7625 61.8399 97.9151 61.7113 98.0435C61.5828 98.1719 61.4301 98.2737 61.2621 98.3431C61.0942 98.4125 60.9142 98.4481 60.7324 98.4479Z" fill="#0188FE"/>
<path d="M105.94 71.0357C105.715 71.0359 105.492 70.9922 105.284 70.9072L68.3342 55.5757V7.58574C68.3347 7.16138 68.5035 6.75454 68.8036 6.45448C69.1037 6.15441 69.5105 5.98561 69.9349 5.98512H140.82C141.244 5.98561 141.651 6.15441 141.951 6.45448C142.251 6.75454 142.42 7.16138 142.42 7.58574V55.6092L142.351 55.6389L106.616 70.8997C106.402 70.9896 106.172 71.0358 105.94 71.0357Z" fill="white"/>
<path d="M105.94 71.1499C105.7 71.1502 105.462 71.1037 105.24 71.013L68.22 55.6521V7.58574C68.2205 7.13106 68.4013 6.69515 68.7228 6.37365C69.0444 6.05214 69.4803 5.87129 69.9349 5.87078H140.82C141.274 5.87129 141.71 6.05214 142.032 6.37365C142.353 6.69515 142.534 7.13106 142.535 7.58574V55.6847L106.661 71.0047C106.432 71.1008 106.187 71.1501 105.94 71.1499ZM68.6773 55.3466L105.415 70.5902C105.757 70.7292 106.141 70.7269 106.482 70.5838L142.077 55.3828V7.58574C142.077 7.25231 141.944 6.93266 141.709 6.69689C141.473 6.46112 141.153 6.3285 140.82 6.3281H69.9349C69.6015 6.3285 69.2819 6.46112 69.0461 6.69689C68.8103 6.93266 68.6777 7.25231 68.6773 7.58574V55.3466Z" fill="#3F3D56"/>
<path d="M168.602 44.2858H168.556L142.306 55.4948L106.39 70.8311C106.25 70.8901 106.099 70.9209 105.947 70.9217C105.795 70.9225 105.644 70.8932 105.503 70.8357L68.4486 55.4628L41.5535 44.3041L41.5124 44.2858H41.4666C41.0422 44.2863 40.6354 44.4551 40.3353 44.7552C40.0352 45.0553 39.8664 45.4621 39.866 45.8865V115.399C39.8664 115.824 40.0352 116.231 40.3353 116.531C40.6354 116.831 41.0422 117 41.4666 117H168.602C169.026 117 169.433 116.831 169.733 116.531C170.033 116.231 170.202 115.824 170.203 115.399V45.8865C170.202 45.4621 170.033 45.0553 169.733 44.7552C169.433 44.4551 169.026 44.2863 168.602 44.2858ZM169.745 115.399C169.745 115.703 169.625 115.993 169.41 116.208C169.196 116.422 168.905 116.543 168.602 116.543H41.4666C41.1634 116.543 40.8727 116.422 40.6583 116.208C40.4439 115.993 40.3234 115.703 40.3233 115.399V45.8865C40.3237 45.5908 40.4384 45.3068 40.6434 45.0937C40.8483 44.8806 41.1277 44.755 41.4232 44.7432L68.4486 55.9567L105.327 71.2587C105.726 71.4211 106.174 71.4186 106.571 71.2518L142.306 55.991L168.648 44.7432C168.943 44.7559 169.221 44.8818 169.426 45.0948C169.63 45.3077 169.745 45.5913 169.745 45.8865V115.399Z" fill="#3F3D56"/>
<path d="M100.188 23.9239H75.0349C74.5497 23.9239 74.0844 23.7312 73.7414 23.3881C73.3983 23.0451 73.2056 22.5798 73.2056 22.0946C73.2056 21.6095 73.3983 21.1442 73.7414 20.8011C74.0844 20.4581 74.5497 20.2653 75.0349 20.2653H100.188C100.673 20.2653 101.138 20.4581 101.481 20.8011C101.824 21.1442 102.017 21.6095 102.017 22.0946C102.017 22.5798 101.824 23.0451 101.481 23.3881C101.138 23.7312 100.673 23.9239 100.188 23.9239Z" fill="#0188FE"/>
<path d="M87.1539 16.1495H75.0349C74.5497 16.1495 74.0844 15.9567 73.7414 15.6137C73.3983 15.2706 73.2056 14.8053 73.2056 14.3202C73.2056 13.835 73.3983 13.3697 73.7414 13.0267C74.0844 12.6836 74.5497 12.4909 75.0349 12.4909H87.1539C87.639 12.4909 88.1043 12.6836 88.4474 13.0267C88.7904 13.3697 88.9832 13.835 88.9832 14.3202C88.9832 14.8053 88.7904 15.2706 88.4474 15.6137C88.1043 15.9567 87.639 16.1495 87.1539 16.1495Z" fill="#0188FE"/>
<path d="M124.189 42.2168H85.7744C85.2892 42.2168 84.8239 42.0241 84.4809 41.681C84.1378 41.3379 83.9451 40.8727 83.9451 40.3875C83.9451 39.9023 84.1378 39.4371 84.4809 39.094C84.8239 38.7509 85.2892 38.5582 85.7744 38.5582H124.189C124.675 38.5582 125.14 38.7509 125.483 39.094C125.826 39.4371 126.019 39.9023 126.019 40.3875C126.019 40.8727 125.826 41.3379 125.483 41.681C125.14 42.0241 124.675 42.2168 124.189 42.2168Z" fill="#CCCCCC"/>
<path d="M124.189 50.6772H85.7744C85.2892 50.6772 84.8239 50.4845 84.4809 50.1415C84.1378 49.7984 83.9451 49.3331 83.9451 48.848C83.9451 48.3628 84.1378 47.8975 84.4809 47.5545C84.8239 47.2114 85.2892 47.0187 85.7744 47.0187H124.189C124.675 47.0187 125.14 47.2114 125.483 47.5545C125.826 47.8975 126.019 48.3628 126.019 48.848C126.019 49.3331 125.826 49.7984 125.483 50.1415C125.14 50.4845 124.675 50.6772 124.189 50.6772Z" fill="#CCCCCC"/>
<path d="M10.1609 52.8157C9.92327 52.8153 9.69305 52.7328 9.50924 52.5821C9.32543 52.4315 9.19933 52.2219 9.15229 51.9889L8.32027 47.8412C7.87901 45.6412 8.3298 43.3559 9.57345 41.4882C10.8171 39.6206 12.7518 38.3234 14.9518 37.8821C17.1519 37.4409 19.4371 37.8917 21.3048 39.1353C23.1725 40.379 24.4696 42.3136 24.9109 44.5137L25.7427 48.6614C25.7961 48.9289 25.7412 49.2067 25.59 49.4337C25.4388 49.6608 25.2038 49.8186 24.9364 49.8726L10.3637 52.7955C10.2969 52.8089 10.229 52.8157 10.1609 52.8157Z" fill="#2F2E41"/>
<path d="M36.0316 114.573L33.4176 114.572L32.1746 104.489L36.0325 104.49L36.0316 114.573Z" fill="#A0616A"/>
<path d="M31.5502 113.825H36.5917V117H28.376C28.376 116.158 28.7104 115.35 29.3057 114.755C29.901 114.16 30.7084 113.825 31.5502 113.825Z" fill="#2F2E41"/>
<path d="M8.79383 114.546L6.38672 113.527L9.17364 103.757L12.7261 105.262L8.79383 114.546Z" fill="#A0616A"/>
<path d="M4.95856 112.111L9.60081 114.077L8.36285 117L0.797682 113.796C0.960254 113.412 1.19684 113.064 1.49392 112.772C1.79101 112.479 2.14278 112.248 2.52916 112.092C2.91553 111.935 3.32894 111.856 3.74578 111.86C4.16261 111.863 4.57472 111.948 4.95856 112.111Z" fill="#2F2E41"/>
<path d="M16.8549 51.7763C19.9566 51.7763 22.4711 49.2619 22.4711 46.1602C22.4711 43.0585 19.9566 40.544 16.8549 40.544C13.7532 40.544 11.2388 43.0585 11.2388 46.1602C11.2388 49.2619 13.7532 51.7763 16.8549 51.7763Z" fill="#A0616A"/>
<path d="M17.1209 71.7088L17.0633 71.5217C15.533 66.5473 13.9511 61.4058 12.3671 56.5157L12.3242 56.3838L12.4216 56.2848C14.8804 53.7836 19.4866 52.7859 23.1363 53.9648C26.8095 55.1506 29.3408 58.4765 29.0244 61.7015C28.8561 63.6388 29.3765 65.5735 30.4942 67.1649L30.6408 67.3774L30.4117 67.4971C26.3084 69.6086 21.8823 71.0225 17.3148 71.6807L17.1209 71.7088Z" fill="#3F3D56"/>
<path d="M10.3476 112.734C10.1473 112.734 9.95066 112.681 9.77742 112.581L6.7437 110.829C6.49484 110.687 6.30876 110.456 6.22269 110.183C6.13661 109.909 6.15689 109.614 6.27945 109.355L13.0205 93.3593L18.1724 70.0303L27.5614 66.6162L27.6468 66.6555C37.7128 71.2794 36.9347 104.422 36.6765 111.019C36.6649 111.297 36.5527 111.561 36.361 111.762C36.1692 111.963 35.9109 112.087 35.6342 112.111L32.8109 112.48C32.5238 112.506 32.2377 112.423 32.0088 112.248C31.7799 112.072 31.6248 111.818 31.574 111.534L25.8101 85.7748C25.8043 85.7259 25.7829 85.6802 25.749 85.6444C25.7151 85.6086 25.6706 85.5848 25.6221 85.5763C25.5755 85.5674 25.5274 85.5735 25.4845 85.5937C25.4417 85.6139 25.4064 85.6473 25.3837 85.6889L11.3473 112.148C11.2734 112.281 11.1736 112.398 11.0538 112.492C10.9341 112.585 10.7968 112.654 10.65 112.694C10.5515 112.721 10.4497 112.734 10.3476 112.734Z" fill="#2F2E41"/>
<path d="M13.7196 89.2267C13.8968 88.9682 14.0153 88.6739 14.0666 88.3647C14.1178 88.0555 14.1007 87.7387 14.0163 87.4368C13.9319 87.1349 13.7824 86.8552 13.5782 86.6174C13.374 86.3795 13.1202 86.1894 12.8346 86.0602L12.9881 81.1629L10.0347 80.3437L9.91506 87.2628C9.72994 87.757 9.73253 88.3019 9.92235 88.7944C10.1122 89.2868 10.476 89.6925 10.945 89.9346C11.4139 90.1766 11.9554 90.2383 12.4668 90.1078C12.9781 89.9773 13.4239 89.6638 13.7195 89.2267H13.7196Z" fill="#A0616A"/>
<path d="M9.95884 84.05L9.7855 84.0492C9.49981 84.0472 9.22533 83.9378 9.01671 83.7426C8.8081 83.5474 8.68066 83.2808 8.65978 82.9958C8.37652 79.3484 7.50664 66.9242 8.2072 60.1882C8.30002 59.5595 8.51807 58.956 8.84843 58.4132C9.17879 57.8704 9.61474 57.3995 10.1305 57.0282C10.6462 56.657 11.2311 56.3931 11.8507 56.2521C12.4703 56.1111 13.1119 56.096 13.7374 56.2075L13.9178 56.2473L13.9164 56.4321C13.8522 65.2946 13.8563 74.1053 13.8604 82.6261C13.861 82.8862 13.7728 83.1388 13.6105 83.3421C13.4481 83.5454 13.2213 83.6872 12.9674 83.7441C11.9777 83.9489 10.9695 84.0514 9.95884 84.05Z" fill="#0188FE"/>
<path d="M16.6818 94.679C15.9258 94.6757 15.197 94.3968 14.6319 93.8945C14.0669 93.3922 13.7044 92.7011 13.6126 91.9507L13.8613 71.4967L9.7959 61.2139C9.62482 59.863 9.91538 58.494 10.6204 57.3291C11.3254 56.1642 12.4035 55.2718 13.6796 54.7969L14.7664 54.3892C14.9718 54.3122 15.1903 54.2766 15.4095 54.2842C15.6287 54.2919 15.8442 54.3428 16.0437 54.4339C16.2432 54.5251 16.4227 54.6547 16.572 54.8155C16.7212 54.9762 16.8373 55.1648 16.9135 55.3704L21.1055 66.6886L21.1065 66.7051C21.3972 71.2098 22.7091 93.6297 20.0934 94.2985C18.9851 94.5582 17.8499 94.6858 16.7116 94.6787L16.6818 94.679Z" fill="#0188FE"/>
<path d="M40.8322 81.5045C40.5417 81.3867 40.2806 81.2066 40.0673 80.977C39.8539 80.7473 39.6935 80.4737 39.5974 80.1753C39.5012 79.877 39.4717 79.5612 39.5108 79.2502C39.5499 78.9392 39.6567 78.6405 39.8237 78.3752L36.9941 74.3751L39.0056 72.0627L42.9221 77.7678C43.3492 78.0779 43.6476 78.5339 43.7609 79.0493C43.8742 79.5648 43.7945 80.1039 43.5369 80.5645C43.2793 81.0251 42.8617 81.3752 42.3632 81.5484C41.8647 81.7217 41.3199 81.7061 40.8322 81.5045H40.8322Z" fill="#A0616A"/>
<path d="M38.0067 76.3638C37.859 76.3593 37.7144 76.3195 37.5852 76.2476C37.4561 76.1756 37.346 76.0737 37.2645 75.9504L37.2496 75.9279C32.5677 68.8416 27.7265 61.5142 22.8199 54.2096L22.7671 54.1309L22.8346 54.0643C23.265 53.6626 23.7721 53.3521 24.3256 53.1514C24.879 52.9507 25.4673 52.864 26.0551 52.8964C26.6603 52.9075 27.2563 53.046 27.8042 53.303C28.3522 53.5601 28.8398 53.9298 29.2351 54.3881C33.5229 59.605 39.6423 70.433 41.4156 73.6276C41.5276 73.8259 41.5607 74.0591 41.5084 74.2808C41.4561 74.5025 41.3223 74.6963 41.1335 74.8238C40.2627 75.4166 39.33 75.9128 38.3518 76.3036C38.242 76.3467 38.1246 76.3672 38.0067 76.3638Z" fill="#0188FE"/>
<path d="M36.435 90.1203C33.6306 90.1221 23.5971 70.8025 21.6142 66.9295L21.5971 66.8826L19.4036 55.0316C19.3636 54.8159 19.3667 54.5945 19.4126 54.38C19.4584 54.1656 19.5462 53.9623 19.6709 53.7818C19.7955 53.6014 19.9546 53.4473 20.1389 53.3285C20.3232 53.2096 20.5292 53.1284 20.745 53.0894L21.8875 52.8828C23.2268 52.6373 24.6097 52.8518 25.8118 53.4913C27.0139 54.1308 27.9646 55.1579 28.5094 56.4058L31.3756 68.4533L40.9595 84.7367C41.2742 85.4343 41.3205 86.2236 41.0894 86.9532C40.8583 87.6828 40.3661 88.3015 39.7072 88.6907C38.733 89.2799 37.6926 89.7517 36.6075 90.0962C36.5514 90.1124 36.4933 90.1205 36.4349 90.1203H36.435Z" fill="#0188FE"/>
<path d="M21.2169 46.2088H9.89819V44.8368C9.8999 43.3212 10.5027 41.8682 11.5744 40.7965C12.6461 39.7248 14.0991 39.122 15.6147 39.1203H16.5294C18.045 39.122 19.498 39.7248 20.5697 40.7965C21.6414 41.8682 22.2442 43.3212 22.2459 44.8368V45.1798C22.2456 45.4526 22.1371 45.7142 21.9442 45.9071C21.7513 46.1 21.4897 46.2085 21.2169 46.2088Z" fill="#2F2E41"/>
</g>
<defs>
<clipPath id="clip0_247_696">
<rect width="169.405" height="117" fill="white" transform="translate(0.797607)"/>
</clipPath>
</defs>
</svg>
