<svg width="253" height="66" viewBox="0 0 253 66" fill="none" xmlns="http://www.w3.org/2000/svg">
<path d="M43.349 32.0782C43.349 29.8418 43.7651 27.8785 44.5972 26.1882C45.4554 24.498 46.6126 23.1977 48.0688 22.2876C49.525 21.3774 51.1503 20.9224 52.9446 20.9224C54.4788 20.9224 55.8181 21.2344 56.9623 21.8585C58.1325 22.4826 59.0296 23.3018 59.6537 24.3159V21.2344H66.3238V43H59.6537V39.9185C59.0036 40.9327 58.0934 41.7518 56.9233 42.3759C55.7791 43 54.4398 43.3121 52.9056 43.3121C51.1373 43.3121 49.525 42.857 48.0688 41.9468C46.6126 41.0107 45.4554 39.6975 44.5972 38.0072C43.7651 36.2909 43.349 34.3146 43.349 32.0782ZM59.6537 32.1172C59.6537 30.4529 59.1856 29.1397 58.2495 28.1776C57.3393 27.2154 56.2211 26.7343 54.8949 26.7343C53.5687 26.7343 52.4375 27.2154 51.5014 28.1776C50.5912 29.1137 50.1361 30.4139 50.1361 32.0782C50.1361 33.7425 50.5912 35.0687 51.5014 36.0569C52.4375 37.019 53.5687 37.5001 54.8949 37.5001C56.2211 37.5001 57.3393 37.019 58.2495 36.0569C59.1856 35.0947 59.6537 33.7815 59.6537 32.1172ZM77.8194 24.862C78.5995 23.6658 79.5747 22.7297 80.7449 22.0536C81.9151 21.3514 83.2153 21.0004 84.6455 21.0004V28.0605H82.8122C81.148 28.0605 79.8998 28.4246 79.0676 29.1527C78.2355 29.8548 77.8194 31.103 77.8194 32.8973V43H71.1493V21.2344H77.8194V24.862ZM101.135 43L94.5038 33.8725V43H87.8337V14.1352H94.5038V30.0889L101.096 21.2344H109.326L100.277 32.1562L109.404 43H101.135ZM115.301 18.972C114.13 18.972 113.168 18.634 112.414 17.9579C111.686 17.2558 111.322 16.3976 111.322 15.3835C111.322 14.3433 111.686 13.4851 112.414 12.809C113.168 12.1069 114.13 11.7559 115.301 11.7559C116.445 11.7559 117.381 12.1069 118.109 12.809C118.863 13.4851 119.24 14.3433 119.24 15.3835C119.24 16.3976 118.863 17.2558 118.109 17.9579C117.381 18.634 116.445 18.972 115.301 18.972ZM118.616 21.2344V43H111.946V21.2344H118.616ZM130.12 24.862C130.9 23.6658 131.875 22.7297 133.046 22.0536C134.216 21.3514 135.516 21.0004 136.946 21.0004V28.0605H135.113C133.449 28.0605 132.2 28.4246 131.368 29.1527C130.536 29.8548 130.12 31.103 130.12 32.8973V43H123.45V21.2344H130.12V24.862Z" fill="#1583E8"/>
<path d="M171.144 15.6175V43H164.474V26.5783L158.35 43H152.967L146.804 26.5393V43H140.134V15.6175H148.014L155.698 34.5746L163.304 15.6175H171.144ZM174.615 32.0782C174.615 29.8418 175.031 27.8785 175.863 26.1882C176.721 24.498 177.878 23.1977 179.335 22.2876C180.791 21.3774 182.416 20.9224 184.21 20.9224C185.745 20.9224 187.084 21.2344 188.228 21.8585C189.398 22.4826 190.295 23.3018 190.919 24.3159V21.2344H197.59V43H190.919V39.9185C190.269 40.9327 189.359 41.7518 188.189 42.3759C187.045 43 185.706 43.3121 184.171 43.3121C182.403 43.3121 180.791 42.857 179.335 41.9468C177.878 41.0107 176.721 39.6975 175.863 38.0072C175.031 36.2909 174.615 34.3146 174.615 32.0782ZM190.919 32.1172C190.919 30.4529 190.451 29.1397 189.515 28.1776C188.605 27.2154 187.487 26.7343 186.161 26.7343C184.834 26.7343 183.703 27.2154 182.767 28.1776C181.857 29.1137 181.402 30.4139 181.402 32.0782C181.402 33.7425 181.857 35.0687 182.767 36.0569C183.703 37.019 184.834 37.5001 186.161 37.5001C187.487 37.5001 188.605 37.019 189.515 36.0569C190.451 35.0947 190.919 33.7815 190.919 32.1172ZM215.677 21.0004C218.226 21.0004 220.254 21.8325 221.762 23.4968C223.297 25.1351 224.064 27.3974 224.064 30.2839V43H217.433V31.1811C217.433 29.7248 217.055 28.5936 216.301 27.7875C215.547 26.9814 214.533 26.5783 213.259 26.5783C211.985 26.5783 210.97 26.9814 210.216 27.7875C209.462 28.5936 209.085 29.7248 209.085 31.1811V43H202.415V21.2344H209.085V24.1209C209.761 23.1587 210.671 22.4046 211.816 21.8585C212.96 21.2864 214.247 21.0004 215.677 21.0004ZM227.372 32.0782C227.372 29.8418 227.789 27.8785 228.621 26.1882C229.479 24.498 230.636 23.1977 232.092 22.2876C233.549 21.3774 235.174 20.9224 236.968 20.9224C238.502 20.9224 239.842 21.2344 240.986 21.8585C242.156 22.4826 243.053 23.3018 243.677 24.3159V21.2344H250.347V43H243.677V39.9185C243.027 40.9327 242.117 41.7518 240.947 42.3759C239.803 43 238.463 43.3121 236.929 43.3121C235.161 43.3121 233.549 42.857 232.092 41.9468C230.636 41.0107 229.479 39.6975 228.621 38.0072C227.789 36.2909 227.372 34.3146 227.372 32.0782ZM243.677 32.1172C243.677 30.4529 243.209 29.1397 242.273 28.1776C241.363 27.2154 240.245 26.7343 238.918 26.7343C237.592 26.7343 236.461 27.2154 235.525 28.1776C234.615 29.1137 234.16 30.4139 234.16 32.0782C234.16 33.7425 234.615 35.0687 235.525 36.0569C236.461 37.019 237.592 37.5001 238.918 37.5001C240.245 37.5001 241.363 37.019 242.273 36.0569C243.209 35.0947 243.677 33.7815 243.677 32.1172Z" fill="#F47037"/>
<path fill-rule="evenodd" clip-rule="evenodd" d="M0 16.7944C0 13.204 2.91063 10.2933 6.50107 10.2933H34.6724C38.2628 10.2933 41.1734 13.204 41.1734 16.7944V44.9657C41.1734 48.5562 38.2628 51.4668 34.6724 51.4668H23.8372V62.5728C23.8372 64.368 22.3819 65.8234 20.5867 65.8234C18.7915 65.8234 17.3362 64.3681 17.3362 62.5728V52.0835H17.4762V40.5064H22.3459C24.9798 40.5064 27.185 40.0317 28.9614 39.0823C30.7378 38.1328 32.0547 36.8924 32.9123 35.3611C33.7699 33.7991 34.1987 32.0839 34.1987 30.2157C34.1987 28.1943 33.7546 26.4026 32.8664 24.8406C31.9782 23.2786 30.6459 22.0535 28.8695 21.1653C27.0931 20.2771 24.9186 19.833 22.3459 19.833H9.62027V51.4668H6.50107C2.91063 51.4668 0 48.5562 0 44.9657V16.7944ZM25.1024 33.2018C24.3673 33.9063 23.2494 34.2585 21.7487 34.2585H17.4762V26.1729H21.7487C23.2494 26.1729 24.3673 26.5251 25.1024 27.2295C25.8374 27.9339 26.2049 28.9293 26.2049 30.2157C26.2049 31.502 25.8374 32.4974 25.1024 33.2018Z" fill="#0188FE"/>
</svg>
