<svg width="121" height="117" viewBox="0 0 121 117" fill="none" xmlns="http://www.w3.org/2000/svg">
<g clip-path="url(#clip0_247_595)">
<path d="M110.393 116.883V105.15C110.393 105.15 114.965 113.468 110.393 116.883Z" fill="#F1F1F1"/>
<path d="M110.675 116.881L102.031 108.946C102.031 108.946 111.252 111.203 110.675 116.881Z" fill="#F1F1F1"/>
<path d="M80.1887 51.7715L34.3217 78.5792C34.1612 78.6728 33.9701 78.6988 33.7903 78.6517C33.6106 78.6046 33.4569 78.488 33.3629 78.3277L3.86745 27.8619C3.77387 27.7014 3.74779 27.5103 3.79493 27.3305C3.84207 27.1508 3.95858 26.9971 4.1189 26.9031L49.9859 0.095479C50.1465 0.00189859 50.3376 -0.0241835 50.5173 0.0229548C50.697 0.070093 50.8507 0.186602 50.9447 0.346923L80.4402 50.8128C80.5338 50.9733 80.5598 51.1644 80.5127 51.3441C80.4656 51.5239 80.3491 51.6776 80.1887 51.7715Z" fill="white"/>
<path d="M80.1887 51.7715L34.3217 78.5792C34.1612 78.6728 33.9701 78.6988 33.7903 78.6517C33.6106 78.6046 33.4569 78.488 33.3629 78.3277L3.86745 27.8619C3.77387 27.7014 3.74779 27.5103 3.79493 27.3305C3.84207 27.1508 3.95858 26.9971 4.1189 26.9031L49.9859 0.095479C50.1465 0.00189859 50.3376 -0.0241835 50.5173 0.0229548C50.697 0.070093 50.8507 0.186602 50.9447 0.346923L80.4402 50.8128C80.5338 50.9733 80.5598 51.1644 80.5127 51.3441C80.4656 51.5239 80.3491 51.6776 80.1887 51.7715ZM4.26036 27.1452C4.16417 27.2015 4.09426 27.2938 4.06597 27.4016C4.03769 27.5094 4.05334 27.6241 4.1095 27.7204L33.605 78.1863C33.6614 78.2825 33.7536 78.3524 33.8614 78.3807C33.9693 78.4089 34.0839 78.3933 34.1802 78.3371L80.0473 51.5295C80.1435 51.4731 80.2134 51.3809 80.2417 51.273C80.2699 51.1652 80.2543 51.0505 80.1981 50.9542L50.7027 0.48838C50.6463 0.392183 50.5541 0.322273 50.4462 0.29399C50.3384 0.265707 50.2237 0.281359 50.1274 0.337513L4.26036 27.1452Z" fill="#3F3D56"/>
<path d="M33.7441 32.1709L22.3681 38.8198C22.2076 38.9134 22.0165 38.9395 21.8368 38.8923C21.657 38.8452 21.5033 38.7287 21.4094 38.5684L14.7605 27.1924C14.6669 27.0318 14.6409 26.8407 14.688 26.661C14.7351 26.4812 14.8516 26.3275 15.012 26.2336L26.3879 19.5847C26.5485 19.4912 26.7396 19.4651 26.9193 19.5122C27.0991 19.5594 27.2528 19.6759 27.3467 19.8362L33.9956 31.2122C34.0892 31.3727 34.1152 31.5638 34.0681 31.7435C34.021 31.9233 33.9045 32.077 33.7441 32.1709ZM15.1534 26.4756C15.0572 26.532 14.9873 26.6242 14.959 26.7321C14.9308 26.8399 14.9464 26.9546 15.0026 27.0509L21.6514 38.4269C21.7078 38.5231 21.8 38.593 21.9079 38.6213C22.0157 38.6496 22.1304 38.6339 22.2267 38.5778L33.6027 31.9289C33.6989 31.8725 33.7688 31.7803 33.7971 31.6725C33.8253 31.5646 33.8097 31.45 33.7535 31.3536L27.1047 19.9776C27.0483 19.8814 26.9561 19.8115 26.8482 19.7833C26.7404 19.755 26.6257 19.7706 26.5294 19.8268L15.1534 26.4756Z" fill="#F2F2F2"/>
<path d="M31.2898 35.4725L19.9138 42.1214C19.7694 42.2056 19.5974 42.229 19.4356 42.1866C19.2738 42.1442 19.1355 42.0393 19.051 41.8951L12.4021 30.5191C12.3179 30.3746 12.2944 30.2026 12.3368 30.0408C12.3792 29.8791 12.4841 29.7407 12.6284 29.6562L24.0044 23.0073C24.1489 22.9231 24.3208 22.8996 24.4826 22.942C24.6444 22.9845 24.7827 23.0893 24.8673 23.2336L31.5161 34.6096C31.6004 34.7541 31.6238 34.9261 31.5814 35.0878C31.539 35.2496 31.4341 35.3879 31.2898 35.4725Z" fill="#0188FE"/>
<path d="M58.7478 26.8932L23.1676 47.6885C23.0232 47.773 22.8511 47.7965 22.6893 47.7541C22.5275 47.7117 22.3891 47.6067 22.3047 47.4622C22.2203 47.3178 22.1967 47.1457 22.2391 46.9839C22.2816 46.8221 22.3866 46.6838 22.531 46.5993L58.1112 25.804C58.1828 25.7622 58.2618 25.7349 58.3439 25.7236C58.426 25.7124 58.5094 25.7174 58.5896 25.7384C58.6697 25.7594 58.7449 25.796 58.8109 25.8461C58.8769 25.8962 58.9323 25.9588 58.9741 26.0303C59.0159 26.1018 59.0432 26.1808 59.0545 26.2629C59.0657 26.345 59.0607 26.4285 59.0397 26.5086C59.0187 26.5887 58.9821 26.6639 58.932 26.7299C58.8819 26.7959 58.8194 26.8514 58.7478 26.8932Z" fill="#CCCCCC"/>
<path d="M52.3479 35.6666L25.3602 51.44C25.2887 51.4818 25.2097 51.5091 25.1276 51.5203C25.0455 51.5316 24.962 51.5265 24.8819 51.5055C24.7201 51.4631 24.5817 51.3581 24.4973 51.2137C24.4129 51.0692 24.3893 50.8972 24.4318 50.7353C24.4742 50.5735 24.5792 50.4352 24.7236 50.3508L51.7113 34.5774C51.7829 34.5356 51.8619 34.5083 51.944 34.4971C52.026 34.4858 52.1095 34.4908 52.1897 34.5118C52.2698 34.5329 52.345 34.5694 52.411 34.6195C52.477 34.6696 52.5324 34.7322 52.5742 34.8037C52.616 34.8752 52.6433 34.9543 52.6546 35.0363C52.6658 35.1184 52.6608 35.2019 52.6398 35.282C52.6188 35.3621 52.5822 35.4373 52.5321 35.5033C52.482 35.5693 52.4195 35.6248 52.3479 35.6666V35.6666Z" fill="#CCCCCC"/>
<path d="M50.5632 13.1671L34.8304 22.3623C34.686 22.4467 34.5139 22.4703 34.3521 22.4279C34.1903 22.3854 34.052 22.2805 33.9675 22.136C33.8831 21.9916 33.8595 21.8195 33.902 21.6577C33.9444 21.4959 34.0494 21.3575 34.1938 21.2731L49.9266 12.0779C50.071 11.9935 50.2431 11.9699 50.4049 12.0123C50.485 12.0333 50.5603 12.0699 50.6262 12.12C50.6922 12.1701 50.7477 12.2327 50.7895 12.3042C50.8313 12.3757 50.8586 12.4548 50.8699 12.5368C50.8811 12.6189 50.8761 12.7024 50.8551 12.7825C50.834 12.8626 50.7975 12.9378 50.7474 13.0038C50.6973 13.0698 50.6347 13.1253 50.5632 13.1671Z" fill="#CCCCCC"/>
<path d="M48.8297 19.214L37.0233 26.1144C36.9518 26.1562 36.8727 26.1835 36.7907 26.1947C36.7086 26.206 36.6251 26.2009 36.545 26.1799C36.4649 26.1589 36.3897 26.1223 36.3237 26.0723C36.2577 26.0222 36.2022 25.9596 36.1604 25.8881C36.1186 25.8166 36.0913 25.7375 36.0801 25.6554C36.0688 25.5734 36.0738 25.4899 36.0949 25.4098C36.1159 25.3296 36.1525 25.2544 36.2025 25.1884C36.2526 25.1225 36.3152 25.067 36.3867 25.0252L48.1931 18.1248C48.3375 18.0404 48.5096 18.0168 48.6714 18.0592C48.8332 18.1016 48.9716 18.2066 49.056 18.3511C49.1404 18.4955 49.164 18.6676 49.1216 18.8294C49.0791 18.9912 48.9741 19.1295 48.8297 19.214Z" fill="#CCCCCC"/>
<path d="M63.1333 34.3961L27.5531 55.1915C27.4087 55.2759 27.2366 55.2995 27.0748 55.257C26.913 55.2146 26.7746 55.1096 26.6902 54.9652C26.6058 54.8207 26.5822 54.6487 26.6246 54.4869C26.6671 54.325 26.7721 54.1867 26.9165 54.1023L62.4967 33.3069C62.6412 33.2225 62.8132 33.1989 62.975 33.2413C63.1369 33.2838 63.2752 33.3888 63.3596 33.5332C63.444 33.6776 63.4676 33.8497 63.4252 34.0115C63.3827 34.1733 63.2778 34.3117 63.1333 34.3961V34.3961Z" fill="#CCCCCC"/>
<path d="M56.7334 43.17L29.7457 58.9434C29.6742 58.9852 29.5952 59.0125 29.5131 59.0237C29.431 59.035 29.3475 59.03 29.2674 59.0089C29.1873 58.9879 29.1121 58.9513 29.0461 58.9013C28.9801 58.8512 28.9246 58.7886 28.8828 58.7171C28.841 58.6456 28.8137 58.5665 28.8025 58.4844C28.7912 58.4024 28.7963 58.3189 28.8173 58.2388C28.8383 58.1586 28.8749 58.0834 28.9249 58.0175C28.975 57.9515 29.0376 57.896 29.1091 57.8542L56.0968 42.0808C56.1684 42.039 56.2474 42.0117 56.3295 42.0005C56.4116 41.9892 56.495 41.9942 56.5752 42.0153C56.6553 42.0363 56.7305 42.0729 56.7965 42.1229C56.8625 42.173 56.9179 42.2356 56.9597 42.3071C57.0015 42.3786 57.0288 42.4577 57.0401 42.5398C57.0513 42.6218 57.0463 42.7053 57.0253 42.7854C57.0043 42.8656 56.9677 42.9408 56.9176 43.0068C56.8675 43.0727 56.805 43.1282 56.7334 43.17V43.17Z" fill="#CCCCCC"/>
<path d="M67.5186 41.8995L31.9383 62.6949C31.8668 62.7367 31.7878 62.764 31.7057 62.7753C31.6236 62.7865 31.5402 62.7815 31.46 62.7605C31.3799 62.7395 31.3047 62.7029 31.2387 62.6528C31.1727 62.6027 31.1173 62.5401 31.0755 62.4686C31.0337 62.3971 31.0064 62.3181 30.9951 62.236C30.9839 62.1539 30.9889 62.0704 31.0099 61.9903C31.0309 61.9102 31.0675 61.835 31.1176 61.769C31.1677 61.703 31.2302 61.6475 31.3018 61.6057L66.882 40.8103C66.9535 40.7685 67.0325 40.7412 67.1146 40.73C67.1967 40.7187 67.2802 40.7237 67.3603 40.7448C67.4404 40.7658 67.5156 40.8024 67.5816 40.8524C67.6476 40.9025 67.7031 40.9651 67.7449 41.0366C67.7867 41.1081 67.814 41.1872 67.8252 41.2693C67.8365 41.3513 67.8314 41.4348 67.8104 41.5149C67.7894 41.5951 67.7528 41.6703 67.7028 41.7362C67.6527 41.8022 67.5901 41.8577 67.5186 41.8995Z" fill="#CCCCCC"/>
<path d="M69.7115 45.651L34.1312 66.4463C34.0597 66.4881 33.9806 66.5155 33.8986 66.5267C33.8165 66.5379 33.733 66.5329 33.6529 66.5119C33.5728 66.4909 33.4976 66.4543 33.4316 66.4042C33.3656 66.3542 33.3101 66.2916 33.2683 66.2201C33.2265 66.1485 33.1992 66.0695 33.188 65.9874C33.1767 65.9053 33.1817 65.8219 33.2028 65.7417C33.2238 65.6616 33.2604 65.5864 33.3104 65.5204C33.3605 65.4544 33.4231 65.399 33.4946 65.3572L69.0749 44.5618C69.1464 44.52 69.2254 44.4927 69.3075 44.4814C69.3896 44.4702 69.473 44.4752 69.5532 44.4962C69.6333 44.5172 69.7085 44.5538 69.7745 44.6039C69.8405 44.654 69.896 44.7166 69.9378 44.7881C69.9796 44.8596 70.0069 44.9386 70.0181 45.0207C70.0294 45.1028 70.0243 45.1863 70.0033 45.2664C69.9823 45.3465 69.9457 45.4217 69.8956 45.4877C69.8456 45.5537 69.783 45.6092 69.7115 45.651Z" fill="#CCCCCC"/>
<path d="M58.2054 60.2558C58.6997 59.6737 59.1447 59.0514 59.5356 58.3953C59.8863 57.8035 60.2302 57.1707 60.3075 56.4766C60.3471 56.1811 60.3163 55.8803 60.2177 55.5989C60.119 55.3175 59.9554 55.0633 59.7401 54.857C59.5319 54.6651 59.2681 54.5445 58.9868 54.5125C58.7056 54.4805 58.4214 54.5389 58.1755 54.6792C57.9267 54.822 57.7211 55.0294 57.5805 55.2796C57.4399 55.5297 57.3696 55.8132 57.377 56.1C57.3972 56.4158 57.4884 56.723 57.6439 56.9986C57.7994 57.2742 58.0151 57.5111 58.2749 57.6918C59.3266 58.4537 60.969 58.4139 62.0899 57.8341C63.3525 57.181 64.0048 55.4722 63.0129 54.3026C62.8066 54.0593 62.4632 54.3312 62.5149 54.5936C62.5805 54.9481 62.7789 55.2642 63.0696 55.4773C63.3604 55.6904 63.7216 55.7844 64.0793 55.7402C64.4371 55.696 64.7645 55.5169 64.9946 55.2394C65.2248 54.9619 65.3403 54.607 65.3175 54.2472L64.8716 54.5079C65.4183 54.75 66.0191 54.8439 66.6136 54.7801C67.2081 54.7164 67.7753 54.4972 68.2582 54.1446C68.497 53.971 68.7103 53.7648 68.8919 53.5321C69.1102 53.2473 69.4768 53.0633 69.7737 52.8582L71.9132 51.3799C72.2278 51.1625 71.9286 50.6443 71.6113 50.8635L69.6737 52.2024C69.3508 52.4255 69.0258 52.6458 68.7049 52.8718C68.4755 53.0333 68.3344 53.294 68.1256 53.4858C67.7304 53.8413 67.2422 54.0772 66.7181 54.1658C66.1939 54.2545 65.6554 54.1923 65.1652 53.9866C65.1195 53.9621 65.0683 53.9496 65.0165 53.9506C64.9647 53.9515 64.9139 53.9657 64.8692 53.9919C64.8244 54.018 64.7871 54.0553 64.7609 54.1C64.7346 54.1447 64.7203 54.1954 64.7193 54.2472C64.7429 54.4619 64.6808 54.6772 64.5464 54.8463C64.412 55.0153 64.2162 55.1245 64.0017 55.1499C63.7873 55.1753 63.5714 55.1149 63.4012 54.9819C63.2311 54.8489 63.1203 54.6541 63.0931 54.4398L62.5952 54.7309C63.235 55.4854 62.809 56.6428 62.0718 57.1491C61.2474 57.7153 60.0292 57.8136 59.0999 57.4616C58.8719 57.3831 58.6626 57.2585 58.485 57.0956C58.3073 56.9326 58.1652 56.7347 58.0675 56.5144C57.9769 56.3153 57.9511 56.0928 57.9936 55.8782C58.0361 55.6637 58.1449 55.4679 58.3046 55.3185C58.443 55.1818 58.6291 55.1042 58.8236 55.1021C59.0181 55.1 59.2058 55.1736 59.3471 55.3074C59.5009 55.4644 59.6138 55.6569 59.6758 55.8679C59.7378 56.0789 59.7469 56.3019 59.7024 56.5172C59.6066 57.1165 59.2753 57.6691 58.9671 58.1809C58.6152 58.7641 58.2173 59.3183 57.7771 59.8381C57.5304 60.1301 57.9561 60.5509 58.2054 60.2558L58.2054 60.2558Z" fill="#0188FE"/>
<path d="M63.5157 74.4778C63.5673 74.5308 63.6146 74.5878 63.6572 74.6482L70.2827 74.4861L71.0556 73.0737L73.3397 73.9616L72.2143 76.595C72.1234 76.8077 71.9659 76.9852 71.7656 77.1009C71.5652 77.2165 71.3327 77.264 71.103 77.2363L63.6174 76.332C63.4408 76.5555 63.2004 76.72 62.928 76.8036C62.6557 76.8871 62.3644 76.8858 62.0928 76.7997C61.8212 76.7137 61.5823 76.547 61.4078 76.3218C61.2333 76.0967 61.1315 75.8237 61.1159 75.5393C61.1003 75.2548 61.1717 74.9724 61.3205 74.7295C61.4693 74.4866 61.6886 74.2948 61.9491 74.1795C62.2096 74.0643 62.4991 74.0311 62.7789 74.0844C63.0588 74.1377 63.3158 74.2749 63.5157 74.4778Z" fill="#FFB7B7"/>
<path d="M85.1138 114.715H82.9354L81.8989 106.312L85.1142 106.313L85.1138 114.715Z" fill="#FFB7B7"/>
<path d="M85.6694 116.827L78.645 116.827V116.738C78.6451 116.013 78.9331 115.317 79.4459 114.805C79.9586 114.292 80.654 114.004 81.3791 114.004H81.3793L85.6696 114.004L85.6694 116.827Z" fill="#2F2E41"/>
<path d="M65.3324 114.667L63.3291 113.811L65.6769 105.676L68.6336 106.939L65.3324 114.667Z" fill="#FFB7B7"/>
<path d="M65.0139 116.827L58.5542 114.067L58.5891 113.986C58.874 113.319 59.4121 112.793 60.085 112.522C60.7579 112.252 61.5106 112.261 62.1774 112.545L62.1776 112.545L66.1229 114.231L65.0139 116.827Z" fill="#2F2E41"/>
<path d="M74.5248 76.2981L74.3672 78.8509L78.9721 79.3436L83.7903 79.8593L82.3721 75.9829L74.5248 76.2981Z" fill="#FFB7B7"/>
<path d="M74.2225 78.8836L72.4336 66.4126L75.5342 65.3964L76.4449 64.1475L80.8766 64.4097L81.5273 65.8671L83.8904 66.9837L83.5272 73.7282L83.7921 79.3701L74.2225 78.8836Z" fill="#2F2E41"/>
<path d="M73.0965 75.5414L69.9426 74.2795L69.9561 74.2234C69.9696 74.1668 71.3119 68.5575 71.4902 67.6561C71.6758 66.7169 72.3542 66.4573 72.383 66.4467L72.404 66.439L73.6522 66.8189L74.2003 71.1259L73.0965 75.5414Z" fill="#2F2E41"/>
<path d="M66.9549 113.19L62.7566 112.328L69.4666 93.813L71.7631 87.4977C71.7631 87.4977 73.2197 82.434 73.8778 80.4745L74.2749 77.8452L83.6762 78.8858C83.6762 78.8858 86.3019 82.742 85.5042 89.0273L85.865 112.651L81.6668 112.867L78.1503 89.0406L71.9784 102.102C71.9784 102.102 70.0331 107.676 68.6413 108.884L66.9549 113.19Z" fill="#2F2E41"/>
<path d="M79.9062 79.7628C79.9801 79.761 80.0541 79.7651 80.1274 79.775L84.5133 74.8063L84.0031 73.2792L86.2071 72.208L87.373 74.8237C87.4672 75.035 87.4903 75.2711 87.4388 75.4967C87.3874 75.7222 87.2642 75.925 87.0876 76.0746L81.335 80.9489C81.3789 81.2304 81.336 81.5185 81.2121 81.7751C81.0882 82.0316 80.8892 82.2443 80.6414 82.3849C80.3937 82.5255 80.109 82.5874 79.8252 82.5623C79.5415 82.5372 79.2721 82.4262 79.0529 82.2443C78.8337 82.0623 78.6751 81.818 78.5982 81.5437C78.5213 81.2694 78.5297 80.9782 78.6224 80.7088C78.715 80.4394 78.8875 80.2046 79.1168 80.0356C79.3461 79.8666 79.6215 79.7715 79.9062 79.7628Z" fill="#FFB7B7"/>
<path d="M84.163 75.2902L82.3335 70.9866L83.0471 67.989L83.8159 67.0176C83.8722 66.9935 83.9329 66.9814 83.9942 66.982C84.0554 66.9825 84.1159 66.9958 84.1717 67.0209C84.4553 67.1351 84.6967 67.4848 84.8894 68.0605L86.604 72.9445L84.163 75.2902Z" fill="#2F2E41"/>
<path d="M74.6709 62.553V59.3085C74.6709 58.1555 75.129 57.0496 75.9443 56.2343C76.7596 55.419 77.8654 54.9609 79.0185 54.9609C80.1716 54.9609 81.2774 55.419 82.0927 56.2343C82.9081 57.0496 83.3661 58.1555 83.3661 59.3085V62.553C83.3659 62.7078 83.3043 62.8563 83.1949 62.9658C83.0854 63.0752 82.9369 63.1368 82.7821 63.137H75.2549C75.1001 63.1368 74.9516 63.0752 74.8421 62.9658C74.7327 62.8563 74.6711 62.7078 74.6709 62.553Z" fill="#2F2E41"/>
<path d="M78.1252 63.0615C79.8857 63.0615 81.3127 61.6344 81.3127 59.874C81.3127 58.1136 79.8857 56.6865 78.1252 56.6865C76.3648 56.6865 74.9377 58.1136 74.9377 59.874C74.9377 61.6344 76.3648 63.0615 78.1252 63.0615Z" fill="#FFB7B7"/>
<path d="M73.6423 59.568C73.6434 58.6562 74.006 57.7821 74.6508 57.1373C75.2955 56.4926 76.1697 56.1299 77.0815 56.1289H77.7304C78.6422 56.1299 79.5164 56.4926 80.1611 57.1373C80.8058 57.7821 81.1685 58.6562 81.1695 59.568V59.6329H79.7982L79.3305 58.3232L79.2369 59.6329H78.5282L78.2922 58.9721L78.245 59.6329H73.6423L73.6423 59.568Z" fill="#2F2E41"/>
<path d="M77.8113 63.5019C77.7469 63.4147 77.7084 63.3111 77.7003 63.203C77.6922 63.095 77.7148 62.9868 77.7655 62.891C78.4532 61.5831 79.416 59.1664 78.138 57.6759L78.0462 57.5688H81.7562V63.1389L78.3859 63.7336C78.3518 63.7396 78.3172 63.7427 78.2826 63.7427C78.1905 63.7427 78.0999 63.7209 78.0179 63.679C77.936 63.6371 77.8652 63.5764 77.8113 63.5019Z" fill="#2F2E41"/>
<path d="M34.533 112.88L36.5017 113.583L40.1526 106.324L37.2468 105.286L34.533 112.88Z" fill="#9F616A"/>
<path d="M33.3486 114.608L34.2605 112.057L38.1378 113.443C38.7926 113.678 39.3275 114.163 39.6252 114.792C39.9229 115.42 39.959 116.142 39.7257 116.797L39.697 116.877L33.3486 114.608Z" fill="#2F2E41"/>
<path d="M47.3355 114.827L49.4263 114.827L50.421 106.763L47.3352 106.763L47.3355 114.827Z" fill="#9F616A"/>
<path d="M46.8022 114.145L50.9197 114.145H50.9199C51.2644 114.145 51.6057 114.212 51.924 114.344C52.2424 114.476 52.5316 114.669 52.7753 114.913C53.019 115.157 53.2123 115.446 53.3441 115.764C53.476 116.083 53.5439 116.424 53.5439 116.768V116.854L46.8024 116.854L46.8022 114.145Z" fill="#2F2E41"/>
<path d="M42.5706 63.3055L43.4798 61.5088C43.4798 61.5088 46.8672 62.3574 47.1751 64.3206L42.5706 63.3055Z" fill="#F1F1F1"/>
<path d="M38.8189 83.8494L41.2916 97.6482L34.7258 109.26L38.6482 110.794L45.2993 99.5389L46.152 96.4692L46.6635 112.5L50.2011 112.392L51.8229 97.4237L49.2216 83.5083L38.8189 83.8494Z" fill="#2F2E41"/>
<path d="M43.5126 87.1118C39.88 87.1118 37.5735 86.417 37.5219 86.406L37.4382 86.3882L39.3303 77.6156L39.4155 69.5237C39.4155 66.0946 41.6724 63.5665 41.9856 63.3332C42.0383 63.125 42.1359 62.9309 42.2714 62.7643C42.4069 62.5978 42.5771 62.4628 42.7702 62.3689C43.523 62.0273 44.443 62.4372 44.4817 62.4548L47.2428 63.49L47.2558 63.5283C47.2891 63.6264 50.9259 75.5656 50.9259 75.5656C50.9259 75.5656 50.7058 85.9974 50.629 86.3391C50.629 86.3391 45.531 87.1118 43.5126 87.1118Z" fill="#3F3D56"/>
<path d="M46.3041 60.9432C48.3652 60.9432 50.036 59.2724 50.036 57.2114C50.036 55.1503 48.3652 53.4795 46.3041 53.4795C44.2431 53.4795 42.5723 55.1503 42.5723 57.2114C42.5723 59.2724 44.2431 60.9432 46.3041 60.9432Z" fill="#9F616A"/>
<path opacity="0.2" d="M42.1431 70.1855L48.672 79.2949L49.6361 75.0409L42.1431 70.1855Z" fill="black"/>
<path d="M62.6126 76.3833C62.4289 76.5286 62.2157 76.6318 61.9879 76.6857C61.76 76.7397 61.5232 76.743 61.2939 76.6955C61.0647 76.6479 60.8486 76.5507 60.661 76.4107C60.4734 76.2706 60.3188 76.0911 60.208 75.8848L54.5884 76.7843L55.8058 74.0891L60.9557 73.6482C61.3145 73.4851 61.7208 73.4593 62.0974 73.5757C62.474 73.6922 62.7948 73.9427 62.999 74.2798C63.2032 74.617 63.2767 75.0173 63.2055 75.405C63.1343 75.7927 62.9233 76.1408 62.6126 76.3833H62.6126Z" fill="#9F616A"/>
<path d="M56.0952 73.9354L58.1144 73.7373L58.674 76.5541L56.1332 76.599L56.0952 73.9354Z" fill="#F1F1F1"/>
<path d="M57.7502 77.5361L47.8611 76.6555L42.8677 68.7142L42.8523 68.644C42.7106 67.9953 42.8098 67.3172 43.1315 66.7363C43.4531 66.1554 43.9752 65.7114 44.6002 65.4872C45.2252 65.263 45.9105 65.274 46.528 65.518C47.1456 65.7621 47.6532 66.2225 47.9561 66.8134L50.8873 72.5311L56.8031 73.4253L57.7502 77.5361Z" fill="#3F3D56"/>
<path d="M43.1253 60.4517L46.2228 60.5629C46.4116 60.5697 46.924 58.532 46.9911 58.1093C47.0441 57.8341 47.1955 57.5876 47.4169 57.4159C47.6384 57.2441 47.9148 57.1589 48.1945 57.176C48.4264 57.1979 49.0111 56.7647 49.6144 56.2518C50.7599 55.278 50.7003 53.449 49.442 52.6261C49.4076 52.6036 49.3739 52.5831 49.3407 52.5645C48.547 52.1202 47.6184 51.971 46.7088 51.9597C45.8842 51.9494 45.0363 52.0531 44.3099 52.4434C43.0076 53.1431 42.3145 54.6721 42.2536 56.1493C42.1927 57.6264 42.6662 59.0708 43.2036 60.448" fill="#2F2E41"/>
<path d="M120.773 117H0.162686C0.119668 117 0.0784126 116.983 0.0479947 116.953C0.0175768 116.922 0.000488281 116.881 0.000488281 116.838C0.000488281 116.795 0.0175768 116.754 0.0479947 116.723C0.0784126 116.693 0.119668 116.676 0.162686 116.676H120.838C120.881 116.676 120.922 116.693 120.952 116.723C120.983 116.754 121 116.795 121 116.838C121 116.928 120.863 117 120.773 117Z" fill="#CBCBCB"/>
</g>
<defs>
<clipPath id="clip0_247_595">
<rect width="120.999" height="117" fill="white" transform="translate(0.000488281)"/>
</clipPath>
</defs>
</svg>
