<svg width="13" height="14" viewBox="0 0 13 14" fill="none" xmlns="http://www.w3.org/2000/svg">
<path d="M1.64284 12.0833C1.64284 12.4149 1.77077 12.7328 1.99849 12.9672C2.22622 13.2016 2.53507 13.3333 2.85712 13.3333H10.1428C10.4649 13.3333 10.7737 13.2016 11.0015 12.9672C11.2292 12.7328 11.3571 12.4149 11.3571 12.0833V3.33334H1.64284V12.0833ZM8.52379 5.41667C8.52379 5.30616 8.56643 5.20018 8.64234 5.12204C8.71825 5.0439 8.8212 5 8.92855 5C9.0359 5 9.13885 5.0439 9.21476 5.12204C9.29067 5.20018 9.33331 5.30616 9.33331 5.41667V11.25C9.33331 11.3605 9.29067 11.4665 9.21476 11.5446C9.13885 11.6228 9.0359 11.6667 8.92855 11.6667C8.8212 11.6667 8.71825 11.6228 8.64234 11.5446C8.56643 11.4665 8.52379 11.3605 8.52379 11.25V5.41667ZM6.09522 5.41667C6.09522 5.30616 6.13786 5.20018 6.21377 5.12204C6.28968 5.0439 6.39263 5 6.49998 5C6.60733 5 6.71028 5.0439 6.78619 5.12204C6.8621 5.20018 6.90474 5.30616 6.90474 5.41667V11.25C6.90474 11.3605 6.8621 11.4665 6.78619 11.5446C6.71028 11.6228 6.60733 11.6667 6.49998 11.6667C6.39263 11.6667 6.28968 11.6228 6.21377 11.5446C6.13786 11.4665 6.09522 11.3605 6.09522 11.25V5.41667ZM3.66665 5.41667C3.66665 5.30616 3.70929 5.20018 3.7852 5.12204C3.86111 5.0439 3.96406 5 4.07141 5C4.17876 5 4.28171 5.0439 4.35762 5.12204C4.43353 5.20018 4.47617 5.30616 4.47617 5.41667V11.25C4.47617 11.3605 4.43353 11.4665 4.35762 11.5446C4.28171 11.6228 4.17876 11.6667 4.07141 11.6667C3.96406 11.6667 3.86111 11.6228 3.7852 11.5446C3.70929 11.4665 3.66665 11.3605 3.66665 11.25V5.41667ZM11.7619 0.833338H8.72617L8.48837 0.346359C8.438 0.242248 8.3604 0.154672 8.26432 0.0934833C8.16823 0.0322947 8.05746 -7.88532e-05 7.94447 4.56581e-06H5.05296C4.94022 -0.000441542 4.82965 0.0318113 4.7339 0.093068C4.63816 0.154325 4.56111 0.242107 4.51159 0.346359L4.27379 0.833338H1.23807C1.13073 0.833338 1.02777 0.877236 0.951865 0.955376C0.875957 1.03352 0.833313 1.1395 0.833313 1.25L0.833313 2.08334C0.833313 2.19384 0.875957 2.29982 0.951865 2.37796C1.02777 2.45611 1.13073 2.5 1.23807 2.5H11.7619C11.8692 2.5 11.9722 2.45611 12.0481 2.37796C12.124 2.29982 12.1666 2.19384 12.1666 2.08334V1.25C12.1666 1.1395 12.124 1.03352 12.0481 0.955376C11.9722 0.877236 11.8692 0.833338 11.7619 0.833338V0.833338Z" fill="#C9C9C9"/>
</svg>
